  0
SECTION
  2
HEADER
  9
$ACADVER
  1
AC1009
  0
ENDSEC
  0
SECTION
  2
ENTITIES
  0
CIRCLE
  5
90
  8
Layer_0
  62
5
  10
108.5
  20
892
  30
0
  40
2.75
  0
CIRCLE
  5
90
  8
Layer_0
  62
5
  10
363
  20
892
  30
0
  40
2.75
  0
CIRCLE
  5
90
  8
Layer_0
  62
5
  10
43
  20
787.5
  30
0
  40
2.75
  0
CIRCLE
  5
90
  8
Layer_0
  62
5
  10
108.5
  20
787.5
  30
0
  40
2.75
  0
CIRCLE
  5
90
  8
Layer_0
  62
5
  10
305
  20
787.5
  30
0
  40
2.75
  0
CIRCLE
  5
90
  8
Layer_0
  62
5
  10
363
  20
787.5
  30
0
  40
2.75
  0
CIRCLE
  5
90
  8
Layer_0
  62
5
  10
174
  20
787.5
  30
0
  40
2.75
  0
CIRCLE
  5
90
  8
Layer_0
  62
5
  10
239.5
  20
787.5
  30
0
  40
2.75
  0
CIRCLE
  5
90
  8
Layer_0
  62
5
  10
305
  20
452
  30
0
  40
2.75
  0
CIRCLE
  5
90
  8
Layer_0
  62
5
  10
43
  20
672
  30
0
  40
2.75
  0
CIRCLE
  5
90
  8
Layer_0
  62
5
  10
108.5
  20
672
  30
0
  40
2.75
  0
CIRCLE
  5
90
  8
Layer_0
  62
5
  10
305
  20
672
  30
0
  40
2.75
  0
CIRCLE
  5
90
  8
Layer_0
  62
5
  10
363
  20
672
  30
0
  40
2.75
  0
CIRCLE
  5
90
  8
Layer_0
  62
5
  10
174
  20
672
  30
0
  40
2.75
  0
CIRCLE
  5
90
  8
Layer_0
  62
5
  10
239.5
  20
672
  30
0
  40
2.75
  0
CIRCLE
  5
90
  8
Layer_0
  62
5
  10
170.25
  20
400.57501
  30
0
  40
2.75
  0
CIRCLE
  5
90
  8
Layer_0
  62
5
  10
235.75
  20
400.57501
  30
0
  40
2.75
  0
CIRCLE
  5
90
  8
Layer_0
  62
5
  10
103
  20
962
  30
0
  40
2.75
  0
CIRCLE
  5
90
  8
Layer_0
  62
5
  10
239.5
  20
452
  30
0
  40
2.75
  0
CIRCLE
  5
90
  8
Layer_0
  62
5
  10
108.5
  20
452
  30
0
  40
2.75
  0
CIRCLE
  5
90
  8
Layer_0
  62
5
  10
305
  20
892
  30
0
  40
2.75
  0
CIRCLE
  5
90
  8
Layer_0
  62
5
  10
303
  20
962
  30
0
  40
2.75
  0
CIRCLE
  5
90
  8
Layer_0
  62
5
  10
239.5
  20
892
  30
0
  40
2.75
  0
CIRCLE
  5
90
  8
Layer_0
  62
5
  10
43
  20
892
  30
0
  40
2.75
  0
POLYLINE
  5
90
  8
Layer_1
  62
0
  70
1
  66
1
  10
0
  20
0
  30
0
  0
VERTEX
  5
90
  8
Layer_1
  10
83
  20
972
  0
VERTEX
  5
91
  8
Layer_1
  10
83
  20
922
  0
VERTEX
  5
92
  8
Layer_1
  10
33
  20
922
  0
VERTEX
  5
93
  8
Layer_1
  10
33
  20
428
  0
VERTEX
  5
94
  8
Layer_1
  10
83
  20
428
  0
VERTEX
  5
95
  8
Layer_1
  10
83
  20
372
  0
VERTEX
  5
96
  8
Layer_1
  10
323
  20
372
  0
VERTEX
  5
97
  8
Layer_1
  10
323
  20
428
  0
VERTEX
  5
98
  8
Layer_1
  10
373
  20
428
  0
VERTEX
  5
99
  8
Layer_1
  10
373
  20
922
  0
VERTEX
  5
9a
  8
Layer_1
  10
323
  20
922
  0
VERTEX
  5
9b
  8
Layer_1
  10
323
  20
972
  0
VERTEX
  5
9c
  8
Layer_1
  10
83
  20
972
  0
SEQEND
  0
CIRCLE
  5
9e
  8
Layer_0
  62
5
  10
303
  20
382
  30
0
  40
2.75
  0
CIRCLE
  5
9e
  8
Layer_0
  62
5
  10
174
  20
892
  30
0
  40
2.75
  0
CIRCLE
  5
9e
  8
Layer_0
  62
5
  10
103
  20
382
  30
0
  40
2.75
  0
CIRCLE
  5
9e
  8
Layer_0
  62
5
  10
174
  20
452
  30
0
  40
2.75
  0
CIRCLE
  5
9e
  8
Layer_0
  62
5
  10
170.25
  20
940.57501
  30
0
  40
2.75
  0
CIRCLE
  5
9e
  8
Layer_0
  62
5
  10
235.75
  20
940.57501
  30
0
  40
2.75
  0
CIRCLE
  5
9e
  8
Layer_0
  62
5
  10
43
  20
556.5
  30
0
  40
2.75
  0
CIRCLE
  5
9e
  8
Layer_0
  62
5
  10
108.5
  20
556.5
  30
0
  40
2.75
  0
CIRCLE
  5
9e
  8
Layer_0
  62
5
  10
305
  20
556.5
  30
0
  40
2.75
  0
CIRCLE
  5
9e
  8
Layer_0
  62
5
  10
363
  20
556.5
  30
0
  40
2.75
  0
CIRCLE
  5
9e
  8
Layer_0
  62
5
  10
174
  20
556.5
  30
0
  40
2.75
  0
CIRCLE
  5
9e
  8
Layer_0
  62
5
  10
239.5
  20
556.5
  30
0
  40
2.75
  0
CIRCLE
  5
9e
  8
Layer_0
  62
5
  10
363
  20
452
  30
0
  40
2.75
  0
CIRCLE
  5
9e
  8
Layer_0
  62
5
  10
43
  20
452
  30
0
  40
2.75
  0
ENDSEC
  0
EOF
