  0
SECTION
  2
HEADER
  9
$ACADVER
  1
AC1009
  0
ENDSEC
  0
SECTION
  2
ENTITIES
  0
POLYLINE
  5
90
  8
Layer_0
  62
0
  70
1
  66
1
  10
0
  20
0
  30
0
  0
VERTEX
  5
90
  8
Layer_0
  10
40.073486
  20
982.32483
  0
VERTEX
  5
91
  8
Layer_0
  10
39.562256
  20
982.29901
  0
VERTEX
  5
92
  8
Layer_0
  10
39.065674
  20
982.22327
  0
VERTEX
  5
93
  8
Layer_0
  10
38.586548
  20
982.10004
  0
VERTEX
  5
94
  8
Layer_0
  10
38.127197
  20
981.93188
  0
VERTEX
  5
95
  8
Layer_0
  10
37.690186
  20
981.72137
  0
VERTEX
  5
96
  8
Layer_0
  10
37.277832
  20
981.47089
  0
VERTEX
  5
97
  8
Layer_0
  10
36.892822
  20
981.18304
  0
VERTEX
  5
98
  8
Layer_0
  10
36.537842
  20
980.86035
  0
VERTEX
  5
99
  8
Layer_0
  10
36.215088
  20
980.50531
  0
VERTEX
  5
9a
  8
Layer_0
  10
35.927246
  20
980.12036
  0
VERTEX
  5
9b
  8
Layer_0
  10
35.676758
  20
979.70813
  0
VERTEX
  5
9c
  8
Layer_0
  10
35.466309
  20
979.27106
  0
VERTEX
  5
9d
  8
Layer_0
  10
35.298218
  20
978.81165
  0
VERTEX
  5
9e
  8
Layer_0
  10
35.175049
  20
978.33252
  0
VERTEX
  5
9f
  8
Layer_0
  10
35.099365
  20
977.83606
  0
VERTEX
  5
a0
  8
Layer_0
  10
35.073486
  20
977.32483
  0
VERTEX
  5
a1
  8
Layer_0
  10
35.073486
  20
957.32483
  0
VERTEX
  5
a2
  8
Layer_0
  10
70.073486
  20
957.32483
  0
VERTEX
  5
a3
  8
Layer_0
  10
70.073486
  20
922.32483
  0
VERTEX
  5
a4
  8
Layer_0
  10
90.073486
  20
922.32483
  0
VERTEX
  5
a5
  8
Layer_0
  10
90.584717
  20
922.35065
  0
VERTEX
  5
a6
  8
Layer_0
  10
91.081299
  20
922.42639
  0
VERTEX
  5
a7
  8
Layer_0
  10
91.560425
  20
922.54962
  0
VERTEX
  5
a8
  8
Layer_0
  10
92.019775
  20
922.71777
  0
VERTEX
  5
a9
  8
Layer_0
  10
92.456787
  20
922.92828
  0
VERTEX
  5
aa
  8
Layer_0
  10
92.869141
  20
923.17877
  0
VERTEX
  5
ab
  8
Layer_0
  10
93.25415
  20
923.46655
  0
VERTEX
  5
ac
  8
Layer_0
  10
93.609131
  20
923.78931
  0
VERTEX
  5
ad
  8
Layer_0
  10
93.931885
  20
924.14435
  0
VERTEX
  5
ae
  8
Layer_0
  10
94.219727
  20
924.5293
  0
VERTEX
  5
af
  8
Layer_0
  10
94.470215
  20
924.94153
  0
VERTEX
  5
b0
  8
Layer_0
  10
94.680664
  20
925.3786
  0
VERTEX
  5
b1
  8
Layer_0
  10
94.848755
  20
925.83801
  0
VERTEX
  5
b2
  8
Layer_0
  10
94.971924
  20
926.31714
  0
VERTEX
  5
b3
  8
Layer_0
  10
95.047607
  20
926.8136
  0
VERTEX
  5
b4
  8
Layer_0
  10
95.073486
  20
927.32483
  0
VERTEX
  5
b5
  8
Layer_0
  10
95.073486
  20
977.32483
  0
VERTEX
  5
b6
  8
Layer_0
  10
95.047607
  20
977.83606
  0
VERTEX
  5
b7
  8
Layer_0
  10
94.971924
  20
978.33252
  0
VERTEX
  5
b8
  8
Layer_0
  10
94.848755
  20
978.81165
  0
VERTEX
  5
b9
  8
Layer_0
  10
94.680664
  20
979.27106
  0
VERTEX
  5
ba
  8
Layer_0
  10
94.470215
  20
979.70813
  0
VERTEX
  5
bb
  8
Layer_0
  10
94.219727
  20
980.12036
  0
VERTEX
  5
bc
  8
Layer_0
  10
93.931885
  20
980.50531
  0
VERTEX
  5
bd
  8
Layer_0
  10
93.609131
  20
980.86035
  0
VERTEX
  5
be
  8
Layer_0
  10
93.25415
  20
981.18304
  0
VERTEX
  5
bf
  8
Layer_0
  10
92.869141
  20
981.47089
  0
VERTEX
  5
c0
  8
Layer_0
  10
92.456787
  20
981.72137
  0
VERTEX
  5
c1
  8
Layer_0
  10
92.019775
  20
981.93188
  0
VERTEX
  5
c2
  8
Layer_0
  10
91.560425
  20
982.10004
  0
VERTEX
  5
c3
  8
Layer_0
  10
91.081299
  20
982.22327
  0
VERTEX
  5
c4
  8
Layer_0
  10
90.584717
  20
982.29901
  0
VERTEX
  5
c5
  8
Layer_0
  10
90.073486
  20
982.32483
  0
VERTEX
  5
c6
  8
Layer_0
  10
40.073486
  20
982.32483
  0
SEQEND
  0
POLYLINE
  5
c8
  8
Layer_1
  62
5
  70
1
  66
1
  10
0
  20
0
  30
0
  0
VERTEX
  5
c8
  8
Layer_1
  10
42.075073
  20
977.82361
  0
VERTEX
  5
c9
  8
Layer_1
  10
42.075073
  20
970.82361
  0
VERTEX
  5
ca
  8
Layer_1
  10
82.075073
  20
970.82361
  0
VERTEX
  5
cb
  8
Layer_1
  10
82.075073
  20
928.32361
  0
VERTEX
  5
cc
  8
Layer_1
  10
89.075073
  20
928.32361
  0
VERTEX
  5
cd
  8
Layer_1
  10
89.075073
  20
977.82361
  0
VERTEX
  5
ce
  8
Layer_1
  10
42.075073
  20
977.82361
  0
SEQEND
  0
POLYLINE
  5
d0
  8
Layer_0
  62
0
  70
1
  66
1
  10
0
  20
0
  30
0
  0
VERTEX
  5
d0
  8
Layer_0
  10
98
  20
978
  0
VERTEX
  5
d1
  8
Layer_0
  10
98.025879
  20
978.51123
  0
VERTEX
  5
d2
  8
Layer_0
  10
98.101563
  20
979.00769
  0
VERTEX
  5
d3
  8
Layer_0
  10
98.224731
  20
979.48682
  0
VERTEX
  5
d4
  8
Layer_0
  10
98.392822
  20
979.94623
  0
VERTEX
  5
d5
  8
Layer_0
  10
98.603271
  20
980.3833
  0
VERTEX
  5
d6
  8
Layer_0
  10
98.85376
  20
980.79553
  0
VERTEX
  5
d7
  8
Layer_0
  10
99.141602
  20
981.18048
  0
VERTEX
  5
d8
  8
Layer_0
  10
99.464355
  20
981.53552
  0
VERTEX
  5
d9
  8
Layer_0
  10
99.819336
  20
981.85822
  0
VERTEX
  5
da
  8
Layer_0
  10
100.20435
  20
982.14606
  0
VERTEX
  5
db
  8
Layer_0
  10
100.6167
  20
982.39655
  0
VERTEX
  5
dc
  8
Layer_0
  10
101.05371
  20
982.60706
  0
VERTEX
  5
dd
  8
Layer_0
  10
101.51306
  20
982.77521
  0
VERTEX
  5
de
  8
Layer_0
  10
101.99219
  20
982.89844
  0
VERTEX
  5
df
  8
Layer_0
  10
102.48877
  20
982.97418
  0
VERTEX
  5
e0
  8
Layer_0
  10
103
  20
983
  0
VERTEX
  5
e1
  8
Layer_0
  10
153
  20
983
  0
VERTEX
  5
e2
  8
Layer_0
  10
153.51123
  20
982.97418
  0
VERTEX
  5
e3
  8
Layer_0
  10
154.00781
  20
982.89844
  0
VERTEX
  5
e4
  8
Layer_0
  10
154.48694
  20
982.77521
  0
VERTEX
  5
e5
  8
Layer_0
  10
154.94629
  20
982.60706
  0
VERTEX
  5
e6
  8
Layer_0
  10
155.3833
  20
982.39655
  0
VERTEX
  5
e7
  8
Layer_0
  10
155.79565
  20
982.14606
  0
VERTEX
  5
e8
  8
Layer_0
  10
156.18066
  20
981.85822
  0
VERTEX
  5
e9
  8
Layer_0
  10
156.53564
  20
981.53552
  0
VERTEX
  5
ea
  8
Layer_0
  10
156.8584
  20
981.18048
  0
VERTEX
  5
eb
  8
Layer_0
  10
157.14624
  20
980.79553
  0
VERTEX
  5
ec
  8
Layer_0
  10
157.39673
  20
980.3833
  0
VERTEX
  5
ed
  8
Layer_0
  10
157.60718
  20
979.94623
  0
VERTEX
  5
ee
  8
Layer_0
  10
157.77527
  20
979.48682
  0
VERTEX
  5
ef
  8
Layer_0
  10
157.89844
  20
979.00769
  0
VERTEX
  5
f0
  8
Layer_0
  10
157.97412
  20
978.51123
  0
VERTEX
  5
f1
  8
Layer_0
  10
158
  20
978
  0
VERTEX
  5
f2
  8
Layer_0
  10
158
  20
928
  0
VERTEX
  5
f3
  8
Layer_0
  10
157.97412
  20
927.48877
  0
VERTEX
  5
f4
  8
Layer_0
  10
157.89844
  20
926.99231
  0
VERTEX
  5
f5
  8
Layer_0
  10
157.77527
  20
926.51318
  0
VERTEX
  5
f6
  8
Layer_0
  10
157.60718
  20
926.05377
  0
VERTEX
  5
f7
  8
Layer_0
  10
157.39673
  20
925.6167
  0
VERTEX
  5
f8
  8
Layer_0
  10
157.14624
  20
925.20447
  0
VERTEX
  5
f9
  8
Layer_0
  10
156.8584
  20
924.81952
  0
VERTEX
  5
fa
  8
Layer_0
  10
156.53564
  20
924.46448
  0
VERTEX
  5
fb
  8
Layer_0
  10
156.18066
  20
924.14172
  0
VERTEX
  5
fc
  8
Layer_0
  10
155.79565
  20
923.85394
  0
VERTEX
  5
fd
  8
Layer_0
  10
155.3833
  20
923.60345
  0
VERTEX
  5
fe
  8
Layer_0
  10
154.94629
  20
923.39294
  0
VERTEX
  5
ff
  8
Layer_0
  10
154.48694
  20
923.22479
  0
VERTEX
  5
100
  8
Layer_0
  10
154.00781
  20
923.10156
  0
VERTEX
  5
101
  8
Layer_0
  10
153.51123
  20
923.02582
  0
VERTEX
  5
102
  8
Layer_0
  10
153
  20
923
  0
VERTEX
  5
103
  8
Layer_0
  10
130
  20
923
  0
VERTEX
  5
104
  8
Layer_0
  10
130
  20
955
  0
VERTEX
  5
105
  8
Layer_0
  10
98
  20
955
  0
VERTEX
  5
106
  8
Layer_0
  10
98
  20
978
  0
SEQEND
  0
POLYLINE
  5
108
  8
Layer_1
  62
5
  70
1
  66
1
  10
0
  20
0
  30
0
  0
VERTEX
  5
108
  8
Layer_1
  10
105
  20
977
  0
VERTEX
  5
109
  8
Layer_1
  10
105
  20
970
  0
VERTEX
  5
10a
  8
Layer_1
  10
145
  20
970
  0
VERTEX
  5
10b
  8
Layer_1
  10
145
  20
927.5
  0
VERTEX
  5
10c
  8
Layer_1
  10
152
  20
927.5
  0
VERTEX
  5
10d
  8
Layer_1
  10
152
  20
977
  0
VERTEX
  5
10e
  8
Layer_1
  10
105
  20
977
  0
SEQEND
  0
ENDSEC
  0
EOF
